<?xml version="1.0" standalone="no"?>
<!DOCTYPE svg PUBLIC "-//W3C//DTD SVG 20010904//EN"
 "http://www.w3.org/TR/2001/REC-SVG-20010904/DTD/svg10.dtd">
<svg version="1.0" xmlns="http://www.w3.org/2000/svg"
 width="1280.000000pt" height="937.000000pt" viewBox="0 0 1280.000000 937.000000"
 preserveAspectRatio="xMidYMid meet">
<metadata>
Created by potrace 1.15, written by Peter Selinger 2001-2017
</metadata>
<g transform="translate(0.000000,937.000000) scale(0.100000,-0.100000)"
fill="#000000" stroke="none">
<path d="M6321 8794 c-167 -248 -639 -467 -1151 -535 -272 -36 -756 5 -1143
97 -59 14 -113 27 -120 28 -6 2 -19 6 -27 9 -29 11 -456 137 -520 152 -480
119 -823 159 -1138 135 -173 -13 -388 -54 -415 -78 -11 -9 -21 -16 -23 -14 -2
1 -26 -9 -53 -22 -34 -16 -48 -19 -44 -10 4 10 0 12 -11 8 -9 -3 -16 -14 -16
-23 0 -14 -2 -14 -10 -1 -7 10 -12 12 -17 4 -5 -6 -33 -22 -63 -36 -175 -81
-382 -291 -487 -494 -76 -145 -153 -395 -137 -438 4 -9 0 -23 -7 -32 -10 -12
-13 -59 -12 -182 1 -277 45 -461 200 -836 196 -473 218 -562 217 -856 -1 -195
-2 -211 -31 -321 -64 -243 -177 -414 -331 -502 l-43 -24 72 -48 c152 -103 255
-275 312 -519 29 -127 31 -451 3 -571 -31 -136 -81 -282 -161 -475 -150 -361
-179 -447 -216 -649 -28 -147 -30 -381 -6 -516 51 -278 155 -494 327 -678 110
-118 217 -196 365 -268 146 -70 250 -102 420 -125 281 -39 783 -15 1025 47 41
11 113 28 160 38 111 25 249 63 381 106 59 19 114 35 124 35 9 0 49 11 88 25
161 55 343 94 607 130 167 23 210 25 485 27 280 2 302 -1 565 -67 389 -99 723
-291 847 -487 l30 -47 34 37 c18 20 33 40 34 43 0 3 22 25 49 48 27 24 56 51
65 60 36 39 140 121 154 121 8 0 17 3 19 8 2 4 23 17 47 30 24 12 55 28 70 36
30 16 81 38 96 42 6 1 39 14 75 28 184 74 476 143 645 152 190 10 566 -11 730
-41 259 -46 403 -81 670 -159 440 -130 580 -165 790 -196 518 -76 990 -35
1278 110 42 22 78 40 80 40 36 9 46 14 42 20 -6 10 33 45 41 37 4 -3 14 2 23
11 9 11 12 11 6 3 -14 -21 122 97 144 126 10 12 21 19 25 15 4 -3 4 1 1 9 -4
11 6 27 29 47 20 17 36 36 36 42 0 6 7 13 15 16 23 9 171 320 199 419 41 143
59 300 52 445 -11 251 -63 445 -213 809 -107 258 -181 479 -199 596 -7 50 -14
151 -14 225 0 230 67 497 153 611 18 23 37 50 43 60 6 11 13 17 15 15 2 -1 17
13 34 33 18 22 22 30 9 21 -12 -9 -11 -7 3 5 41 37 84 70 95 74 16 5 48 34 48
43 0 4 -19 17 -42 29 -59 30 -165 141 -211 219 -41 72 -90 190 -112 276 -41
158 -44 473 -6 624 45 179 75 270 122 371 27 60 49 112 49 116 0 3 9 25 19 47
11 23 26 61 34 86 9 25 27 70 40 101 58 128 110 351 128 544 19 195 -19 455
-92 640 -140 351 -407 607 -757 724 -206 69 -516 101 -791 82 -352 -24 -616
-78 -1091 -221 -506 -152 -804 -203 -1210 -204 -337 -1 -399 6 -660 75 -352
94 -659 273 -796 466 -25 34 -46 63 -47 63 -1 0 -22 -30 -46 -66z m59 -623 c0
-6 22 -36 49 -69 57 -68 184 -158 326 -230 103 -52 269 -114 279 -104 3 3 6 0
6 -7 0 -7 4 -10 8 -7 5 3 44 -4 88 -15 161 -42 238 -51 470 -56 390 -9 636 28
1149 172 510 143 729 179 1095 180 225 0 269 -3 372 -23 489 -95 794 -379 904
-842 19 -80 18 -384 -1 -481 -17 -84 -79 -273 -118 -359 -206 -456 -252 -640
-227 -893 14 -139 23 -182 61 -276 59 -148 152 -263 249 -308 22 -10 40 -20
40 -23 0 -3 -17 -15 -38 -27 -190 -110 -322 -389 -323 -683 0 -199 29 -311
158 -607 108 -248 155 -373 187 -503 25 -100 26 -116 23 -315 l-3 -210 -36
-102 c-100 -284 -240 -464 -459 -593 -85 -51 -255 -116 -359 -139 -212 -45
-506 -51 -755 -16 -60 9 -142 20 -181 25 -94 12 -312 61 -492 111 -433 121
-622 166 -741 174 -36 3 -109 10 -161 16 -141 17 -462 15 -608 -4 -126 -17
-384 -86 -497 -133 -195 -82 -358 -196 -452 -317 -11 -15 -25 -27 -29 -27 -5
0 -22 21 -39 46 -41 63 -189 176 -310 236 -185 93 -416 165 -625 194 -143 20
-451 23 -610 4 -63 -7 -128 -12 -145 -12 -61 1 -409 -79 -698 -162 -142 -41
-483 -121 -554 -130 -15 -2 -80 -12 -143 -21 -250 -39 -620 -21 -875 42 -90
22 -310 133 -385 195 -260 212 -392 501 -391 857 1 221 40 369 191 716 137
314 169 427 177 620 5 118 2 158 -16 252 -45 233 -143 393 -299 485 l-43 25
53 31 c231 130 359 525 289 891 -24 125 -60 228 -173 491 -101 235 -112 266
-147 421 -70 302 -27 602 121 845 138 228 354 394 608 467 165 48 279 61 505
62 231 0 327 -7 497 -36 62 -10 129 -21 148 -24 58 -9 316 -74 460 -115 488
-140 790 -185 1175 -177 297 6 474 40 721 136 124 48 314 147 314 163 0 4 5 8
10 8 15 0 125 107 156 152 26 36 44 49 44 29z m149 -7213 c-2 -2 -17 -14 -34
-28 l-30 -25 24 28 c14 15 29 27 34 27 6 0 8 -1 6 -2z"/>
</g>
</svg>
